<?xml version="1.0" encoding="UTF-8" standalone="no"?>
<svg width="256px" height="256px" viewBox="0 0 256 256" version="1.1" xmlns="http://www.w3.org/2000/svg" xmlns:xlink="http://www.w3.org/1999/xlink">
    <title>Go Gopher</title>
    <g stroke="none" stroke-width="1" fill="none" fill-rule="evenodd">
        <circle fill="#2DBCAF" cx="128" cy="128" r="112"></circle>
        <circle fill="#5DC9E1" cx="128" cy="128" r="96"></circle>
        <path d="M98,110 C98,104.477153 102.477153,100 108,100 C113.522847,100 118,104.477153 118,110 C118,115.522847 113.522847,120 108,120 C102.477153,120 98,115.522847 98,110 Z" fill="#FFFFFF"></path>
        <path d="M138,110 C138,104.477153 142.477153,100 148,100 C153.522847,100 158,104.477153 158,110 C158,115.522847 153.522847,120 148,120 C142.477153,120 138,115.522847 138,110 Z" fill="#FFFFFF"></path>
        <path d="M118,140 C118,134.477153 122.477153,130 128,130 C133.522847,130 138,134.477153 138,140 C138,145.522847 133.522847,150 128,150 C122.477153,150 118,145.522847 118,140 Z" fill="#FFFFFF"></path>
        <path d="M75,70 C80.5228475,70 85,74.4771525 85,80 C85,85.5228475 80.5228475,90 75,90 C69.4771525,90 65,85.5228475 65,80 C65,74.4771525 69.4771525,70 75,70 Z" fill="#FFFFFF"></path>
        <path d="M181,70 C186.522847,70 191,74.4771525 191,80 C191,85.5228475 186.522847,90 181,90 C175.477153,90 171,85.5228475 171,80 C171,74.4771525 175.477153,70 181,70 Z" fill="#FFFFFF"></path>
    </g>
</svg> 